<?xml version="1.0" encoding="UTF-8" ?>
<svg version="1.1" width="64" height="64" xmlns="http://www.w3.org/2000/svg" shape-rendering="crispEdges">
<rect x="8" y="4" width="4" height="4" fill="#FB4316" />
<rect x="24" y="4" width="4" height="4" fill="#FB1616" />
<rect x="36" y="4" width="4" height="4" fill="#FB1616" />
<rect x="40" y="4" width="4" height="4" fill="#FB1616" />
<rect x="48" y="4" width="4" height="4" fill="#FB1616" />
<rect x="16" y="8" width="4" height="4" fill="#FB1616" />
<rect x="32" y="8" width="4" height="4" fill="#FB1616" />
<rect x="36" y="8" width="4" height="4" fill="#CECE29" />
<rect x="40" y="8" width="4" height="4" fill="#FB1616" />
<rect x="56" y="8" width="4" height="4" fill="#FB4316" />
<rect x="4" y="12" width="4" height="4" fill="#FB1616" />
<rect x="28" y="12" width="4" height="4" fill="#FB1616" />
<rect x="32" y="12" width="4" height="4" fill="#CECE29" />
<rect x="36" y="12" width="4" height="4" fill="#CECE29" />
<rect x="40" y="12" width="4" height="4" fill="#FB1616" />
<rect x="20" y="16" width="4" height="4" fill="#FB4316" />
<rect x="28" y="16" width="4" height="4" fill="#FB1616" />
<rect x="32" y="16" width="4" height="4" fill="#CECE29" />
<rect x="36" y="16" width="4" height="4" fill="#FB1616" />
<rect x="48" y="16" width="4" height="4" fill="#FB1616" />
<rect x="52" y="16" width="4" height="4" fill="#FB1616" />
<rect x="8" y="20" width="4" height="4" fill="#FB1616" />
<rect x="12" y="20" width="4" height="4" fill="#FB1616" />
<rect x="24" y="20" width="4" height="4" fill="#FB1616" />
<rect x="28" y="20" width="4" height="4" fill="#CECE29" />
<rect x="32" y="20" width="4" height="4" fill="#CECE29" />
<rect x="36" y="20" width="4" height="4" fill="#FB1616" />
<rect x="44" y="20" width="4" height="4" fill="#FB1616" />
<rect x="48" y="20" width="4" height="4" fill="#CECE29" />
<rect x="52" y="20" width="4" height="4" fill="#FB1616" />
<rect x="8" y="24" width="4" height="4" fill="#FB1616" />
<rect x="12" y="24" width="4" height="4" fill="#CECE29" />
<rect x="16" y="24" width="4" height="4" fill="#FB1616" />
<rect x="24" y="24" width="4" height="4" fill="#FB1616" />
<rect x="28" y="24" width="4" height="4" fill="#CECE29" />
<rect x="32" y="24" width="4" height="4" fill="#FB1616" />
<rect x="36" y="24" width="4" height="4" fill="#CECE29" />
<rect x="40" y="24" width="4" height="4" fill="#FB1616" />
<rect x="44" y="24" width="4" height="4" fill="#CECE29" />
<rect x="48" y="24" width="4" height="4" fill="#FB1616" />
<rect x="12" y="28" width="4" height="4" fill="#FB1616" />
<rect x="16" y="28" width="4" height="4" fill="#CECE29" />
<rect x="20" y="28" width="4" height="4" fill="#FB1616" />
<rect x="24" y="28" width="4" height="4" fill="#CECE29" />
<rect x="28" y="28" width="4" height="4" fill="#D3D337" />
<rect x="32" y="28" width="4" height="4" fill="#FB1616" />
<rect x="36" y="28" width="4" height="4" fill="#D3D337" />
<rect x="40" y="28" width="4" height="4" fill="#FB1616" />
<rect x="44" y="28" width="4" height="4" fill="#D3D337" />
<rect x="48" y="28" width="4" height="4" fill="#CECE29" />
<rect x="52" y="28" width="4" height="4" fill="#FB1616" />
<rect x="8" y="32" width="4" height="4" fill="#FB1616" />
<rect x="12" y="32" width="4" height="4" fill="#CECE29" />
<rect x="16" y="32" width="4" height="4" fill="#CECE29" />
<rect x="20" y="32" width="4" height="4" fill="#FB1616" />
<rect x="24" y="32" width="4" height="4" fill="#D3D337" />
<rect x="28" y="32" width="4" height="4" fill="#E0E05D" />
<rect x="32" y="32" width="4" height="4" fill="#E0E05D" />
<rect x="36" y="32" width="4" height="4" fill="#E0E05D" />
<rect x="40" y="32" width="4" height="4" fill="#FB1616" />
<rect x="44" y="32" width="4" height="4" fill="#D3D337" />
<rect x="48" y="32" width="4" height="4" fill="#D3D337" />
<rect x="52" y="32" width="4" height="4" fill="#FB1616" />
<rect x="8" y="36" width="4" height="4" fill="#FB1616" />
<rect x="12" y="36" width="4" height="4" fill="#CECE29" />
<rect x="16" y="36" width="4" height="4" fill="#D3D337" />
<rect x="20" y="36" width="4" height="4" fill="#FB1616" />
<rect x="24" y="36" width="4" height="4" fill="#E0E05D" />
<rect x="28" y="36" width="4" height="4" fill="#FB4316" />
<rect x="32" y="36" width="4" height="4" fill="#FB4316" />
<rect x="36" y="36" width="4" height="4" fill="#FB4316" />
<rect x="40" y="36" width="4" height="4" fill="#E0E05D" />
<rect x="44" y="36" width="4" height="4" fill="#D3D337" />
<rect x="48" y="36" width="4" height="4" fill="#FB1616" />
<rect x="52" y="36" width="4" height="4" fill="#C9C904" />
<rect x="56" y="36" width="4" height="4" fill="#FB1616" />
<rect x="4" y="40" width="4" height="4" fill="#FB1616" />
<rect x="8" y="40" width="4" height="4" fill="#CECE29" />
<rect x="12" y="40" width="4" height="4" fill="#D3D337" />
<rect x="16" y="40" width="4" height="4" fill="#D3D337" />
<rect x="20" y="40" width="4" height="4" fill="#DFDF50" />
<rect x="24" y="40" width="4" height="4" fill="#FB7016" />
<rect x="28" y="40" width="4" height="4" fill="#E4E48A" />
<rect x="32" y="40" width="4" height="4" fill="#E4E48A" />
<rect x="36" y="40" width="4" height="4" fill="#E4E48A" />
<rect x="40" y="40" width="4" height="4" fill="#FB4316" />
<rect x="44" y="40" width="4" height="4" fill="#E0E05D" />
<rect x="48" y="40" width="4" height="4" fill="#FB1616" />
<rect x="52" y="40" width="4" height="4" fill="#C9C904" />
<rect x="56" y="40" width="4" height="4" fill="#FB1616" />
<rect x="4" y="44" width="4" height="4" fill="#FB1616" />
<rect x="8" y="44" width="4" height="4" fill="#D3D337" />
<rect x="12" y="44" width="4" height="4" fill="#D3D337" />
<rect x="16" y="44" width="4" height="4" fill="#FB1616" />
<rect x="20" y="44" width="4" height="4" fill="#DFDF50" />
<rect x="24" y="44" width="4" height="4" fill="#E4E48A" />
<rect x="28" y="44" width="4" height="4" fill="#FF873A" />
<rect x="32" y="44" width="4" height="4" fill="#FF873A" />
<rect x="36" y="44" width="4" height="4" fill="#F4F4DF" />
<rect x="40" y="44" width="4" height="4" fill="#FB4316" />
<rect x="44" y="44" width="4" height="4" fill="#E0E05D" />
<rect x="48" y="44" width="4" height="4" fill="#D3D337" />
<rect x="52" y="44" width="4" height="4" fill="#C9C904" />
<rect x="56" y="44" width="4" height="4" fill="#FB1616" />
<rect x="4" y="48" width="4" height="4" fill="#FB1616" />
<rect x="8" y="48" width="4" height="4" fill="#D3D337" />
<rect x="12" y="48" width="4" height="4" fill="#D3D337" />
<rect x="16" y="48" width="4" height="4" fill="#DFDF50" />
<rect x="20" y="48" width="4" height="4" fill="#FB4316" />
<rect x="24" y="48" width="4" height="4" fill="#E4E48A" />
<rect x="28" y="48" width="4" height="4" fill="#F4F4DF" />
<rect x="32" y="48" width="4" height="4" fill="#F4F4DF" />
<rect x="36" y="48" width="4" height="4" fill="#E4E48A" />
<rect x="40" y="48" width="4" height="4" fill="#FB4316" />
<rect x="44" y="48" width="4" height="4" fill="#E0E05D" />
<rect x="48" y="48" width="4" height="4" fill="#DFDF50" />
<rect x="52" y="48" width="4" height="4" fill="#D3D337" />
<rect x="56" y="48" width="4" height="4" fill="#FB1616" />
<rect x="8" y="52" width="4" height="4" fill="#FB1616" />
<rect x="12" y="52" width="4" height="4" fill="#DFDF50" />
<rect x="16" y="52" width="4" height="4" fill="#DFDF50" />
<rect x="20" y="52" width="4" height="4" fill="#DFDF50" />
<rect x="24" y="52" width="4" height="4" fill="#FB4316" />
<rect x="28" y="52" width="4" height="4" fill="#FB4316" />
<rect x="32" y="52" width="4" height="4" fill="#FB4316" />
<rect x="36" y="52" width="4" height="4" fill="#FB4316" />
<rect x="40" y="52" width="4" height="4" fill="#E0E05D" />
<rect x="44" y="52" width="4" height="4" fill="#E0E05D" />
<rect x="48" y="52" width="4" height="4" fill="#FB1616" />
<rect x="52" y="52" width="4" height="4" fill="#FB1616" />
<rect x="12" y="56" width="4" height="4" fill="#FB1616" />
<rect x="16" y="56" width="4" height="4" fill="#FB1616" />
<rect x="20" y="56" width="4" height="4" fill="#FB1616" />
<rect x="40" y="56" width="4" height="4" fill="#FB1616" />
<rect x="44" y="56" width="4" height="4" fill="#FB1616" />
</svg>